<svg width="1600" height="1200" viewBox="0 0 1600 1200" fill="none" xmlns="http://www.w3.org/2000/svg">
  <defs>
    <linearGradient id="shadow" x1="800" y1="710" x2="800" y2="820" gradientUnits="userSpaceOnUse">
      <stop stop-color="#94A3B8" stop-opacity="0.26"/>
      <stop offset="1" stop-color="#CBD5E1" stop-opacity="0"/>
    </linearGradient>

    <linearGradient id="body" x1="0" y1="-42" x2="0" y2="42" gradientUnits="userSpaceOnUse">
      <stop stop-color="#FFFFFF"/>
      <stop offset="0.38" stop-color="#F8FAFC"/>
      <stop offset="1" stop-color="#E2E8F0"/>
    </linearGradient>

    <linearGradient id="bodyGlow" x1="0" y1="-28" x2="0" y2="30" gradientUnits="userSpaceOnUse">
      <stop stop-color="#FFFFFF" stop-opacity="0.92"/>
      <stop offset="0.5" stop-color="#FFFFFF" stop-opacity="0.28"/>
      <stop offset="1" stop-color="#FFFFFF" stop-opacity="0"/>
    </linearGradient>

    <linearGradient id="metal" x1="-545" y1="-18" x2="-514" y2="18" gradientUnits="userSpaceOnUse">
      <stop stop-color="#F8FAFC"/>
      <stop offset="0.45" stop-color="#C7D0DA"/>
      <stop offset="1" stop-color="#94A3B8"/>
    </linearGradient>

    <filter id="penShadow" x="270" y="266" width="1060" height="668" filterUnits="userSpaceOnUse" color-interpolation-filters="sRGB">
      <feFlood flood-opacity="0" result="BackgroundImageFix"/>
      <feColorMatrix in="SourceAlpha" type="matrix" values="0 0 0 0 0 0 0 0 0 0 0 0 0 0 0 0 0 0 127 0" result="hardAlpha"/>
      <feOffset dy="24"/>
      <feGaussianBlur stdDeviation="28"/>
      <feColorMatrix type="matrix" values="0 0 0 0 0.0588235 0 0 0 0 0.0901961 0 0 0 0 0.164706 0 0 0 0.16 0"/>
      <feBlend mode="normal" in2="BackgroundImageFix" result="effect1_dropShadow_1_1"/>
      <feBlend mode="normal" in="SourceGraphic" in2="effect1_dropShadow_1_1" result="shape"/>
    </filter>
  </defs>

  <ellipse cx="820" cy="768" rx="370" ry="48" transform="rotate(-18 820 768)" fill="url(#shadow)"/>

  <g filter="url(#penShadow)" transform="translate(800 600) rotate(-34)">
    <path d="M-554 0L-520 -15V15L-554 0Z" fill="url(#metal)"/>
    <circle cx="-560" cy="0" r="6" fill="#7C8795"/>

    <path d="M-520 0L-460 -40V40L-520 0Z" fill="url(#body)" stroke="#D8E0E7" stroke-width="4"/>

    <rect x="-460" y="-40" width="626" height="80" rx="40" fill="url(#body)" stroke="#D8E0E7" stroke-width="4"/>
    <rect x="-430" y="-26" width="565" height="40" rx="20" fill="url(#bodyGlow)"/>
    <rect x="-412" y="-3" width="520" height="10" rx="5" fill="#FFFFFF" fill-opacity="0.65"/>
    <rect x="-405" y="17" width="512" height="8" rx="4" fill="#CBD5E1" fill-opacity="0.45"/>

    <rect x="160" y="-42" width="228" height="84" rx="34" fill="url(#body)" stroke="#D8E0E7" stroke-width="4"/>
    <rect x="174" y="-28" width="188" height="38" rx="19" fill="#FFFFFF" fill-opacity="0.56"/>
    <rect x="154" y="-42" width="8" height="84" rx="4" fill="#D5DEE6"/>

    <rect x="350" y="-24" width="50" height="48" rx="18" fill="#F5F7FA" stroke="#D8E0E7" stroke-width="4"/>

    <rect x="138" y="-76" width="222" height="26" rx="13" fill="url(#body)" stroke="#D8E0E7" stroke-width="4"/>
    <rect x="150" y="-65" width="170" height="8" rx="4" fill="#FFFFFF" fill-opacity="0.7"/>
    <rect x="128" y="-58" width="30" height="20" rx="10" fill="#EEF2F6"/>

    <rect x="-36" y="-15" width="150" height="7" rx="3.5" fill="#FFFFFF" fill-opacity="0.52"/>
    <rect x="214" y="-14" width="110" height="7" rx="3.5" fill="#FFFFFF" fill-opacity="0.48"/>
  </g>
</svg>
